<?xml version="1.0" encoding="UTF-8"?>
<svg xmlns="http://www.w3.org/2000/svg" id="Filled" viewBox="0 0 512 512" width="512" height="512"><path d="M136,360l137.139-7.257a18.105,18.105,0,0,1,18.47,13.692h0a18.105,18.105,0,0,1-13.174,21.956l-43.973,10.994L296,424l164.6-42.94a22.73,22.73,0,0,1,13.9,43.209L288,496,152,464l-56,8H24V360Z" style="fill:#f0c6a4"/><rect x="24" y="344" width="72" height="144" transform="translate(120 832) rotate(-180)" style="fill:#2d85cc"/><circle cx="384" cy="272" r="80" style="fill:#ffd33a"/><path d="M384,176a96,96,0,1,0,96,96A96.108,96.108,0,0,0,384,176Zm0,176a80,80,0,1,1,80-80A80.091,80.091,0,0,1,384,352Z"/><path d="M384,248h16a8,8,0,0,0,0-16h-8v-8a8,8,0,0,0-16,0v9.376A24,24,0,0,0,384,280a8,8,0,0,1,0,16H368a8,8,0,0,0,0,16h8v8a8,8,0,0,0,16,0v-9.376A24,24,0,0,0,384,264a8,8,0,0,1,0-16Z"/><path d="M458.948,373.319,296.892,415.6l-36.159-14.464,20.006-4.978a26.106,26.106,0,0,0-7.658-51.4L136.156,352,104,351.976V344a8,8,0,0,0-8-8H43.314l56-56H160a8,8,0,0,0,5.657-2.343L283.313,160H352a8,8,0,0,0,5.657-2.343L472,43.314V72a8,8,0,0,0,16,0V24a8,8,0,0,0-8-8H432a8,8,0,0,0,0,16h28.686l-112,112H280a8,8,0,0,0-5.657,2.343L156.687,264H96a8,8,0,0,0-5.657,2.343l-72,72h0A7.975,7.975,0,0,0,16,344V488a8,8,0,0,0,8,8H96a8,8,0,0,0,8-8v-9.055l48-6.813,134.534,31.655a8,8,0,0,0,4.7-.32l186.5-71.731a30.73,30.73,0,0,0-18.787-58.417ZM88,480H32V352H88Zm48.787-112.011L273.9,360.733a10.105,10.105,0,0,1,9.17,15.292,10.028,10.028,0,0,1-6.206,4.6l-78.8,19.609a8,8,0,1,0,3.864,15.526l32.242-8.023,59.22,23.688a8.008,8.008,0,0,0,4.99.313l164.6-42.94a14.73,14.73,0,0,1,9,28L287.8,487.647,154.2,456.213a7.948,7.948,0,0,0-2.956-.133L104,462.785V367.976Z"/></svg>
