<svg id="Layer_5" enable-background="new 0 0 64 64" height="512" viewBox="0 0 64 64" width="512" xmlns="http://www.w3.org/2000/svg" xmlns:xlink="http://www.w3.org/1999/xlink"><linearGradient id="SVGID_1_" gradientUnits="userSpaceOnUse" x1="32.108" x2="32.108" y1="63" y2=".783"><stop offset="0" stop-color="#9f2fff"/><stop offset="1" stop-color="#0bb1d3"/></linearGradient><path d="m9 41v2c-1.103 0-2 .897-2 2h-2c0-2.206 1.794-4 4-4zm-2 10h-2c0 2.206 1.794 4 4 4v-2c-1.103 0-2-.897-2-2zm48-37.586v29.586h3c1.654 0 3 1.346 3 3v2c0 .395-.081.77-.22 1.116 1.275.345 2.22 1.501 2.22 2.884v2c0 1.383-.945 2.538-2.22 2.884.139.346.22.721.22 1.116v2c0 1.654-1.346 3-3 3h-16c-1.654 0-3-1.346-3-3v-1h-35c-1.654 0-3-1.346-3-3v-16c0-1.654 1.346-3 3-3h6.586l25.414-25.414 6 6 10.086-10.086-4.167-4.167 15.297-2.55-2.549 15.298-4.167-4.167zm-41.586 23.586h3.172l19.414-19.414 6 6 14.5-14.5 2.833 2.833 1.451-8.702-8.703 1.45 2.833 2.833-12.914 12.914-6-6zm35.586 6v-23.586l-2 2v18.586 1 2zm-24-6v-5.586l-5.586 5.586zm2-7.586v7.586h2v-9.586zm4 7.586h2v-13.586l-2 2zm4 0h2v-15.586l-1-1-1 1zm4 0h2v-11.586l-2-2zm4 0h1c.352 0 .686.072 1 .184v-13.77l-2 2zm-25.305 20c-2.834-1.992-4.695-5.28-4.695-9s1.861-7.008 4.695-9h-13.695c-.551 0-1 .448-1 1v16c0 .552.449 1 1 1zm-2.695-9c0 4.963 4.038 9 9 9s9-4.037 9-9-4.038-9-9-9-9 4.037-9 9zm15.305 9h8.88c.328-.919 1.086-1.627 2.036-1.884-.14-.346-.221-.721-.221-1.116v-2c0-.395.081-.77.22-1.116-1.275-.345-2.22-1.501-2.22-2.884v-2c0-1.654 1.346-3 3-3h3v-2-1c0-.552-.449-1-1-1h-13.695c2.834 1.992 4.695 5.28 4.695 9s-1.861 7.008-4.695 9zm28.695 1c0-.552-.449-1-1-1h-1v2h-2v-2h-2v2h-2v-2h-2v2h-2v-2h-2v2h-2v-2h-1c-.551 0-1 .448-1 1v2c0 .552.449 1 1 1h16c.551 0 1-.448 1-1zm2-6c0-.552-.449-1-1-1h-1v2h-2v-2h-2v2h-2v-2h-2v2h-2v-2h-2v2h-2v-2h-1c-.551 0-1 .448-1 1v2c0 .552.449 1 1 1h14 2c.551 0 1-.448 1-1zm-3-7h-1v2h-2v-2h-2v2h-2v-2h-2v2h-2v-2h-2v2h-2v-2h-1c-.551 0-1 .448-1 1v2c0 .552.449 1 1 1h2 14c.551 0 1-.448 1-1v-2c0-.552-.449-1-1-1zm-5-29.586-2 2v25.586h2zm-30 37.441v2.145h2v-2.145c1.155-.366 2-1.435 2-2.709 0-1.087-.604-2.065-1.578-2.553l-1.95-.975c-.291-.145-.472-.438-.472-.764 0-.47.383-.854.854-.854h.292c.471 0 .854.384.854.854v.146h2v-.146c0-1.275-.845-2.344-2-2.709v-2.145h-2v2.145c-1.155.366-2 1.435-2 2.709 0 1.087.604 2.065 1.578 2.553l1.95.975c.291.145.472.438.472.764 0 .47-.383.854-.854.854h-.292c-.471 0-.854-.384-.854-.854v-.146h-2v.146c0 1.274.845 2.343 2 2.709zm0-45.855h-18v-6h18zm-2-4h-14v2h14zm2 6h-18v2h18zm0 4h-18v2h18zm-18 10h18v-2h-18zm4-6v2h2v-2zm-4 0v2h2v-2zm18 0h-10v2h10z" fill="url(#SVGID_1_)"/></svg>